HIERARCHY
ROOT Hips
{
  OFFSET -4.35178 90.3298 111.633
  CHANNELS 6 Xposition Yposition Zposition Zrotation Xrotation Yrotation
  JOINT LeftUpLeg
  {
    OFFSET 0.103456 1.85784 10.5485
    CHANNELS 6 Xposition Yposition Zposition Zrotation Xrotation Yrotation
    JOINT LeftLeg
    {
      OFFSET 43.5 -4.2e-05 0
      CHANNELS 6 Xposition Yposition Zposition Zrotation Xrotation Yrotation
      JOINT LeftFoot
      {
        OFFSET 42.3722 1.9e-05 0
        CHANNELS 6 Xposition Yposition Zposition Zrotation Xrotation Yrotation
        JOINT LeftToe
        {
          OFFSET 17.3 0 0
          CHANNELS 6 Xposition Yposition Zposition Zrotation Xrotation Yrotation
          End Site
          {
            OFFSET 0 0 0
          }
        }
      }
    }
  }
  JOINT RightUpLeg
  {
    OFFSET 0.103456 1.85782 -10.5485
    CHANNELS 6 Xposition Yposition Zposition Zrotation Xrotation Yrotation
    JOINT RightLeg
    {
      OFFSET 43.5 -2.7e-05 0
      CHANNELS 6 Xposition Yposition Zposition Zrotation Xrotation Yrotation
      JOINT RightFoot
      {
        OFFSET 42.3723 0 0
        CHANNELS 6 Xposition Yposition Zposition Zrotation Xrotation Yrotation
        JOINT RightToe
        {
          OFFSET 17.3 0 1.7e-05
          CHANNELS 6 Xposition Yposition Zposition Zrotation Xrotation Yrotation
          End Site
          {
            OFFSET 0 0 0
          }
        }
      }
    }
  }
  JOINT Spine
  {
    OFFSET 6.90197 -2.60373 0
    CHANNELS 6 Xposition Yposition Zposition Zrotation Xrotation Yrotation
    JOINT Spine1
    {
      OFFSET 12.5881 0 0
      CHANNELS 6 Xposition Yposition Zposition Zrotation Xrotation Yrotation
      JOINT Spine2
      {
        OFFSET 12.3432 -1.8e-05 0
        CHANNELS 6 Xposition Yposition Zposition Zrotation Xrotation Yrotation
        JOINT Neck
        {
          OFFSET 25.8329 2.3e-05 0
          CHANNELS 6 Xposition Yposition Zposition Zrotation Xrotation Yrotation
          JOINT Head
          {
            OFFSET 11.7666 0 0
            CHANNELS 6 Xposition Yposition Zposition Zrotation Xrotation Yrotation
            End Site
            {
              OFFSET 0 0 0
            }
          }
        }
        JOINT LeftShoulder
        {
          OFFSET 19.7459 -1.48035 6.0001
          CHANNELS 6 Xposition Yposition Zposition Zrotation Xrotation Yrotation
          JOINT LeftArm
          {
            OFFSET 11.2841 1.8e-05 -2e-05
            CHANNELS 6 Xposition Yposition Zposition Zrotation Xrotation Yrotation
            JOINT LeftForeArm
            {
              OFFSET 33 -1.3e-05 1.9e-05
              CHANNELS 6 Xposition Yposition Zposition Zrotation Xrotation Yrotation
              JOINT LeftHand
              {
                OFFSET 25.2 3.2e-05 1.1e-05
                CHANNELS 6 Xposition Yposition Zposition Zrotation Xrotation Yrotation
                End Site
                {
                  OFFSET 0 0 0
                }
              }
            }
          }
        }
        JOINT RightShoulder
        {
          OFFSET 19.7461 -1.48036 -6.00008
          CHANNELS 6 Xposition Yposition Zposition Zrotation Xrotation Yrotation
          JOINT RightArm
          {
            OFFSET 11.2841 0 0
            CHANNELS 6 Xposition Yposition Zposition Zrotation Xrotation Yrotation
            JOINT RightForeArm
            {
              OFFSET 33.0001 1.6e-05 0
              CHANNELS 6 Xposition Yposition Zposition Zrotation Xrotation Yrotation
              JOINT RightHand
              {
                OFFSET 25.1998 0.000123 0.000432
                CHANNELS 6 Xposition Yposition Zposition Zrotation Xrotation Yrotation
                End Site
                {
                  OFFSET 0 0 0
                }
              }
            }
          }
        }
      }
    }
  }
}
MOTION
Frames:	5
Frame Time:	0.0333333
95.7042 118.078 94.5912 65.7723 68.2805 25.2566 0.103456 1.85784 10.5485 -13.226 4.20532 -178.221 43.5 -4.2e-05 1e-05 -23.9743 -2.06786 -1.00627 42.3722 1.9e-05 -2.84217e-14 46.498 -15.1645 9.47804 17.3 0 3e-06 21.4546 -1e-06 0.003093 0.103456 1.85782 -10.5485 -1.86529 4.28864 168.975 43.5 -2.7e-05 4e-06 -61.7075 -1.44653 10.9547 42.3723 -7.10543e-15 1e-05 86.9748 2.59098 10.7281 17.3 -6e-06 1.7e-05 21.4546 -1.9e-05 -0.003116 6.90197 -2.60373 -3e-06 9.83531 -2.49364 -1.1647 12.5881 1e-05 8e-06 9.69037 -5.06167 -1.82774 12.3432 -1.8e-05 -5e-06 9.46684 -5.02007 -1.49087 25.8329 2.3e-05 7e-06 7.53717 -14.6779 3.38054 11.7666 -8e-06 -6e-06 18.2677 -28.6193 19.3468 19.7459 -1.48035 6.0001 -170.582 -1.84523 -66.895 11.2841 1.8e-05 -2e-05 8.64265 4.76809 45.052 33 -1.3e-05 1.9e-05 -47.8836 6.96703 -6.27834 25.2 3.2e-05 1.1e-05 -21.2146 32.8734 2.34993 19.7461 -1.48036 -6.00008 -170.618 -12.1833 70.8405 11.2841 -1.42109e-14 -1e-06 -25.9649 -5.15584 -41.7856 33.0001 1.6e-05 -1e-06 -89.6905 -11.3877 22.9039 25.1998 0.000123 0.000432 -7.29057 -25.6133 18.6441 
96.2254 115.368 97.5024 68.8076 64.0556 22.2355 0.103456 1.85784 10.5485 -8.46511 4.4152 -177.424 43.5 -4.2e-05 1e-05 -15.5391 -3.88318 -2.15865 42.3722 1.9e-05 0 42.8022 -17.2029 9.86965 17.3 -1.42109e-14 3e-06 21.4546 -1e-06 0.003093 0.103456 1.85782 -10.5485 -3.63378 5.894 165.602 43.5 -2.7e-05 4e-06 -68.0897 -4.26299 10.6793 42.3723 0 1e-05 87.4069 1.01991 15.6891 17.3 -6e-06 1.7e-05 21.4546 -1.9e-05 -0.003116 6.90197 -2.60373 -3e-06 9.74291 -2.5858 -0.987174 12.5881 1e-05 8e-06 9.51485 -5.21313 -1.46105 12.3432 -1.8e-05 -5e-06 9.29362 -5.15119 -1.11536 25.8329 2.3e-05 7e-06 7.66139 -16.1426 4.28902 11.7666 -8e-06 -6e-06 17.4416 -30.9576 18.996 19.7459 -1.48035 6.0001 -170.176 -1.9894 -66.9229 11.2841 1.8e-05 -2e-05 9.30052 4.85435 45.9152 33 -1.3e-05 1.9e-05 -52.6893 5.05552 -4.43712 25.2 3.2e-05 1.1e-05 -22.1517 33.145 2.43429 19.7461 -1.48036 -6.00008 -169.669 -12.0668 71.0877 11.2841 0 -1e-06 -24.4765 -4.5787 -40.9086 33.0001 1.6e-05 -1e-06 -92.3993 -11.0274 23.2 25.1998 0.000123 0.000432 -6.31351 -23.8178 17.2045 
96.6849 112.169 100.483 69.7947 59.861 20.3917 0.103456 1.85784 10.5485 -3.63823 4.23932 -176.231 43.5 -4.2e-05 1e-05 -8.74247 -5.31184 -2.79631 42.3722 1.9e-05 -2.84217e-14 38.5838 -18.0819 10.1393 17.3 -1.42109e-14 3e-06 21.4546 -1e-06 0.003093 0.103456 1.85782 -10.5485 -4.52951 7.31119 163.258 43.5 -2.7e-05 4e-06 -74.7138 -5.74838 9.49245 42.3723 -1.42109e-14 1e-05 87.9702 -1.4667 20.0348 17.3 -6e-06 1.7e-05 21.4546 -1.9e-05 -0.003116 6.90197 -2.60373 -3e-06 10.105 -2.67605 -0.328476 12.5881 1e-05 8e-06 10.2701 -5.26328 -0.113637 12.3432 -1.8e-05 -5e-06 10.0454 -5.10641 0.23245 25.8329 2.3e-05 7e-06 7.63742 -16.7756 5.10585 11.7666 -8e-06 -6e-06 17.3158 -32.2693 18.9831 19.7459 -1.48035 6.0001 -170.137 -1.99784 -71.9684 11.2841 1.8e-05 -2e-05 8.56881 1.82218 56.1803 33 -1.3e-05 1.9e-05 -51.7997 6.07703 -3.87032 25.2 3.2e-05 1.1e-05 -24.0485 33.7496 2.41744 19.7461 -1.48036 -6.00008 -167.426 -15.0497 72.2409 11.2841 -1.42109e-14 -1e-06 -19.7163 -1.70802 -37.2906 33.0001 1.6e-05 -1e-06 -95.8651 -9.99448 23.5158 25.1998 0.000123 0.000432 -5.61349 -22.3564 16.5156 
97.151 108.148 103.41 71.0128 56.4142 18.9396 0.103456 1.85784 10.5485 -0.602604 3.54507 -175.869 43.5 -4.2e-05 1e-05 -5.17231 -5.70251 -3.03301 42.3722 1.9e-05 0 33.8793 -18.6851 9.61536 17.3 -1.42109e-14 3e-06 21.4546 -1e-06 0.003093 0.103456 1.85782 -10.5485 -5.4028 9.0539 160.784 43.5 -2.7e-05 4e-06 -81.3893 -6.12367 7.74022 42.3723 0 1e-05 91.3399 -1.96533 24.9863 17.3 -6e-06 1.7e-05 21.4546 -1.9e-05 -0.003116 6.90197 -2.60373 -3e-06 10.1893 -2.67016 -0.0968506 12.5881 1e-05 8e-06 10.4478 -5.20508 0.350788 12.3432 -1.8e-05 -5e-06 10.2199 -5.01694 0.692122 25.8329 2.3e-05 7e-06 7.4332 -17.3998 5.67106 11.7666 -8e-06 -6e-06 15.8925 -33.292 18.7638 19.7459 -1.48035 6.0001 -169.91 -1.9903 -72.3414 11.2841 1.8e-05 -2e-05 8.67812 1.88041 56.4973 33 -1.3e-05 1.9e-05 -56.9534 4.36772 -2.55897 25.2 3.2e-05 1.1e-05 -25.7071 35.1506 1.83962 19.7461 -1.48036 -6.00008 -166.505 -14.9974 72.706 11.2841 0 -1e-06 -17.8631 -0.0555875 -36.3122 33.0001 1.6e-05 -1e-06 -98.4929 -10.3646 23.6369 25.1998 0.000123 0.000432 -5.26743 -22.1505 16.7847 
97.6543 103.411 106.27 71.7261 53.6359 17.8412 0.103456 1.85784 10.5485 0.953533 2.70808 -175.779 43.5 -4.2e-05 1e-05 -5.37019 -5.3732 -3.19759 42.3722 1.9e-05 0 31.7194 -20.1074 8.52552 17.3 0 3e-06 21.4546 -1e-06 0.003093 0.103456 1.85782 -10.5485 -5.88745 10.681 158.563 43.5 -2.7e-05 4e-06 -88.6056 -5.28164 5.81437 42.3723 0 1e-05 95.1615 -0.456295 29.7903 17.3 -6e-06 1.7e-05 21.4546 -1.9e-05 -0.003116 6.90197 -2.60373 -3e-06 10.3032 -2.69951 0.186812 12.5881 1e-05 8e-06 10.688 -5.2053 0.927086 12.3432 -1.8e-05 -5e-06 10.4573 -4.97791 1.2671 25.8329 2.3e-05 7e-06 7.48964 -18.281 6.41993 11.7666 -8e-06 -6e-06 13.9795 -34.6694 18.2904 19.7459 -1.48035 6.0001 -169.877 -2.09855 -72.6304 11.2841 1.8e-05 -2e-05 8.95705 1.52154 56.9895 33 -1.3e-05 1.9e-05 -60.9751 2.88605 -1.89874 25.2 3.2e-05 1.1e-05 -27.0338 36.2651 1.36396 19.7461 -1.48036 -6.00008 -165.841 -14.9128 73.0365 11.2841 -1.42109e-14 -1e-06 -16.2638 2.22555 -35.2055 33.0001 1.6e-05 -1e-06 -99.1252 -11.8061 23.5551 25.1998 0.000123 0.000432 -4.52875 -23.2144 18.1237 
